<svg xmlns="http://www.w3.org/2000/svg" width="192" height="192" viewBox="0 0 192 192">
  <rect width="192" height="192" rx="40" fill="#f5e6e0"/>
  <g transform="translate(96, 100)">
    <path d="M0,-30 C-15,-50 -45,-50 -45,-25 C-45,-5 -25,15 0,35 C25,15 45,-5 45,-25 C45,-50 15,-50 0,-30Z" fill="#722f37" opacity="0.9"/>
    <path d="M0,-25 C-12,-42 -38,-42 -38,-20 C-38,-3 -20,13 0,30 C20,13 38,-3 38,-20 C38,-42 12,-42 0,-25Z" fill="#c9a0a0" opacity="0.5"/>
  </g>
  <circle cx="140" cy="55" r="8" fill="#f0d4d4" opacity="0.6"/>
  <circle cx="55" cy="50" r="5" fill="#e8c4c4" opacity="0.5"/>
  <circle cx="155" cy="140" r="6" fill="#f0d4d4" opacity="0.4"/>
</svg>
